<svg xmlns="http://www.w3.org/2000/svg" xmlns:xlink="http://www.w3.org/1999/xlink" width="1080" zoomAndPan="magnify" viewBox="0 0 810 809.999993" height="1080" preserveAspectRatio="xMidYMid meet" version="1.0"><defs><clipPath id="d06102fe92"><path d="M 94.582031 94.582031 L 715.582031 94.582031 L 715.582031 715.582031 L 94.582031 715.582031 Z M 94.582031 94.582031 " clip-rule="nonzero"/></clipPath></defs><g clip-path="url(#d06102fe92)"><path fill="#ffffff" d="M 623.121094 715.40625 L 186.867188 715.40625 C 135.980469 715.40625 94.582031 674.007812 94.582031 623.121094 L 94.582031 186.867188 C 94.582031 135.980469 135.980469 94.582031 186.867188 94.582031 L 623.121094 94.582031 C 674.007812 94.582031 715.40625 135.980469 715.40625 186.867188 L 715.40625 623.121094 C 715.40625 674.007812 674.007812 715.40625 623.121094 715.40625 Z M 186.867188 128.140625 C 154.484375 128.140625 128.140625 154.484375 128.140625 186.867188 L 128.140625 623.121094 C 128.140625 655.503906 154.484375 681.847656 186.867188 681.847656 L 623.121094 681.847656 C 655.503906 681.847656 681.847656 655.503906 681.847656 623.121094 L 681.847656 186.867188 C 681.847656 154.484375 655.503906 128.140625 623.121094 128.140625 Z M 186.867188 128.140625 " fill-opacity="1" fill-rule="nonzero"/></g><path fill="#ffffff" d="M 404.996094 581.175781 C 307.847656 581.175781 228.816406 502.140625 228.816406 404.996094 C 228.816406 307.847656 307.847656 228.816406 404.996094 228.816406 C 502.140625 228.816406 581.175781 307.847656 581.175781 404.996094 C 581.175781 502.140625 502.140625 581.175781 404.996094 581.175781 Z M 404.996094 262.375 C 326.351562 262.375 262.375 326.351562 262.375 404.996094 C 262.375 483.636719 326.351562 547.617188 404.996094 547.617188 C 483.636719 547.617188 547.617188 483.636719 547.617188 404.996094 C 547.617188 326.351562 483.636719 262.375 404.996094 262.375 Z M 404.996094 262.375 " fill-opacity="1" fill-rule="nonzero"/><path fill="#ffffff" d="M 589.5625 279.152344 C 557.183594 279.152344 530.835938 252.808594 530.835938 220.425781 C 530.835938 188.042969 557.183594 161.699219 589.5625 161.699219 C 621.945312 161.699219 648.289062 188.042969 648.289062 220.425781 C 648.289062 252.808594 621.945312 279.152344 589.5625 279.152344 Z M 589.5625 195.257812 C 575.6875 195.257812 564.394531 206.546875 564.394531 220.425781 C 564.394531 234.304688 575.6875 245.59375 589.5625 245.59375 C 603.441406 245.59375 614.734375 234.304688 614.734375 220.425781 C 614.734375 206.546875 603.441406 195.257812 589.5625 195.257812 Z M 589.5625 195.257812 " fill-opacity="1" fill-rule="nonzero"/></svg>